<svg width="18" height="19" viewBox="0 0 18 19" fill="none" xmlns="http://www.w3.org/2000/svg">
<g clip-path="url(#clip0_93_3387)">
<g clip-path="url(#clip1_93_3387)">
<g clip-path="url(#clip2_93_3387)">
<path d="M15.667 8.44592C15.762 7.80867 15.7304 7.15894 15.574 6.53392C15.3598 5.67924 14.917 4.89901 14.293 4.27692C13.6709 3.65295 12.8907 3.21011 12.036 2.99592C11.4107 2.83905 10.7606 2.80711 10.123 2.90192M12.82 8.14392C12.922 7.46392 12.71 6.74392 12.186 6.21992C11.9374 5.9708 11.6338 5.78355 11.2996 5.67326C10.9654 5.56296 10.61 5.5327 10.262 5.58492" stroke="#333333" stroke-width="1.5" stroke-linecap="round" stroke-linejoin="round"/>
<path d="M5.392 4.01563C5.52584 4.01558 5.65725 4.05135 5.7726 4.11922C5.88795 4.1871 5.98304 4.28461 6.048 4.40162L6.965 6.05362C7.02425 6.16028 7.05658 6.27979 7.05919 6.40177C7.06181 6.52375 7.03462 6.64453 6.98 6.75362L6.096 8.52063C6.096 8.52063 6.353 9.83763 7.424 10.9106C8.08409 11.56 8.9086 12.0174 9.809 12.2336L11.576 11.3496C11.6851 11.295 11.8059 11.2678 11.9279 11.2704C12.0498 11.273 12.1693 11.3054 12.276 11.3646L13.933 12.2866C14.0499 12.3515 14.1473 12.4464 14.2151 12.5616C14.283 12.6767 14.3189 12.808 14.319 12.9416V14.8446C14.319 15.8136 13.419 16.5126 12.501 16.2036C10.615 15.5676 7.689 14.3556 5.833 12.5006C3.978 10.6456 2.767 7.71863 2.131 5.83363C1.821 4.91563 2.521 4.01563 3.49 4.01563H5.392Z" stroke="#333333" stroke-width="1.5" stroke-linejoin="round"/>
</g>
</g>
</g>
<defs>
<clipPath id="clip0_93_3387">
<rect width="18" height="18" fill="white" transform="translate(0 0.717773)"/>
</clipPath>
<clipPath id="clip1_93_3387">
<rect width="18" height="18" fill="white" transform="translate(0 0.717773)"/>
</clipPath>
<clipPath id="clip2_93_3387">
<rect width="18" height="18" fill="white" transform="translate(0 0.717773)"/>
</clipPath>
</defs>
</svg>
