<svg width="54" height="55" viewBox="0 0 54 55" fill="none" xmlns="http://www.w3.org/2000/svg">
<rect y="0.217773" width="54" height="54" rx="12" fill="#F6F7F9"/>
<g clip-path="url(#clip0_93_3434)">
<g clip-path="url(#clip1_93_3434)">
<path d="M38.8022 24.6677C38.9755 23.6025 38.9175 22.5125 38.6322 21.4717C38.2548 20.0913 37.4762 18.7832 36.2981 17.7028C35.1358 16.6454 33.7188 15.9079 32.1858 15.5625C31.0428 15.3008 29.8618 15.2481 28.7 15.407M33.7592 24.6677C33.9266 23.323 33.5781 21.9035 32.7162 20.8682C31.8535 19.8338 30.6703 19.4164 29.55 19.6162" stroke="#333333" stroke-width="1.7" stroke-linecap="round" stroke-linejoin="round"/>
<path d="M20.88 17.0176C21.1147 17.0193 21.3445 17.085 21.5448 17.2075C21.745 17.33 21.9081 17.5047 22.0165 17.7129L23.606 20.6913C23.8142 21.0823 23.8244 21.5532 23.6323 21.9527L22.1006 25.1376C22.1006 25.1376 22.5443 27.5117 24.4024 29.4429C26.2597 31.3749 28.5343 31.8288 28.5343 31.8288L31.5968 30.2359C31.7849 30.1377 31.9948 30.0888 32.2069 30.0937C32.419 30.0986 32.6264 30.1572 32.8098 30.264L35.6819 31.924C36.0942 32.162 36.35 32.6151 36.35 33.1055V36.5344C36.35 38.2812 34.7903 39.5417 33.1999 38.9841C29.9317 37.8366 24.8597 35.6538 21.645 32.3108C18.4303 28.9669 16.3308 23.6918 15.2284 20.2943C15.1019 19.9207 15.0663 19.5222 15.1246 19.1321C15.1829 18.7419 15.3334 18.3713 15.5636 18.0509C15.7938 17.7305 16.097 17.4697 16.4482 17.29C16.7994 17.1103 17.1884 17.0169 17.5829 17.0176H20.88Z" stroke="#333333" stroke-width="1.7" stroke-linejoin="round"/>
</g>
</g>
<rect x="0.5" y="0.717773" width="53" height="53" rx="11.5" stroke="#E6E9EE"/>
<defs>
<clipPath id="clip0_93_3434">
<rect width="34" height="34" fill="white" transform="translate(10 10.2178)"/>
</clipPath>
<clipPath id="clip1_93_3434">
<rect width="34" height="34" fill="white" transform="translate(10 10.2178)"/>
</clipPath>
</defs>
</svg>
