<svg width="22" height="64" viewBox="0 0 22 64" fill="none" xmlns="http://www.w3.org/2000/svg">
<path d="M20.9844 43.4809C20.8858 43.9404 20.7152 44.9943 20.4002 46.1701C20.1253 47.3519 19.7187 48.6597 19.4126 49.677C17.9559 54.3805 15.5948 58.8632 12.2569 62.4774C11.7218 63.0281 10.898 64.0404 9.76769 63.0382C8.58832 61.9922 8.37709 60.7944 9.16409 59.8967C11.0251 57.6671 12.8588 55.2604 13.8054 52.4701C15.1952 48.4329 16.4832 44.3629 16.8504 40.1231C17.012 38.2242 17.0405 36.3245 16.9698 34.4281C16.8779 32.5319 16.6214 30.6459 16.2215 28.7909C15.4051 25.3073 13.9193 22.0504 12.3101 18.9152C10.9441 16.2022 9.56476 13.4216 7.64812 10.9806C7.4233 10.6978 7.11625 10.4306 6.8008 10.1677C6.47489 9.91551 6.13626 9.65924 5.87328 9.36413C5.4518 8.86365 4.6517 8.12213 4.2677 7.57054C4.1067 7.32928 3.92252 7.09462 3.68019 6.95351C2.56025 6.33365 2.63579 5.68426 4.05701 4.62558C4.36938 4.39622 4.5948 3.93537 5.01751 3.95203C5.03863 3.95181 5.07249 3.95566 5.08725 3.95339C5.80686 3.87607 6.2995 4.11169 6.70444 4.44544C7.09688 4.79623 7.39526 5.24309 7.7877 5.59388C11.594 9.1199 14.6646 13.4058 16.945 18.0761C18.3359 20.9516 19.3146 23.9962 20.2153 27.0649C20.4797 27.9008 20.8435 28.7336 20.8635 29.6313L20.8613 29.6165C21.0737 30.527 21.2629 31.444 21.37 32.3767C21.6755 35.8996 21.6621 39.6286 20.9979 42.9589C20.9868 43.1027 21.0183 43.2883 20.9844 43.4809Z" fill="black" fill-opacity="0.8"/>
<path d="M5.62598 9.19337C5.63431 9.58202 5.61293 10.9576 5.66864 11.8317C5.79364 13.8649 5.86797 15.9029 5.46917 17.9501C5.40709 18.2739 5.41698 18.8105 3.90691 18.8581C2.33347 18.9064 1.40678 18.5803 1.44323 18.0306C1.53253 16.6839 1.84353 15.3242 1.51897 13.9987C1.04642 12.0643 1.1842 10.1086 1.02421 8.1624C0.961209 7.39827 0.932041 6.63804 0.902884 5.87778L0.889575 5.41734C0.889836 5.24198 0.88805 5.07299 0.894669 4.89968C0.90791 4.55306 0.946588 4.21463 1.02138 3.89482C1.16029 3.24476 1.44342 2.6481 1.86488 2.14505C2.12388 1.86344 2.40195 1.58798 2.73793 1.39429C3.33608 1.01825 4.02689 0.812307 4.76148 0.753843C5.48336 0.691289 6.30651 0.815725 7.01608 0.987809C7.26592 1.0401 7.54145 1.12165 7.73633 1.1703L8.33595 1.33515C8.73434 1.44925 9.12023 1.58041 9.50635 1.73267C10.828 2.24899 12.0161 3.11525 13.2925 3.75037C13.5941 3.90352 14.0682 3.78232 14.4057 3.93298C14.6817 4.05683 15.1527 4.25049 15.3812 4.47836C15.4836 4.57447 15.5799 4.68966 15.7214 4.68605C16.357 4.65187 16.308 5.21855 15.5089 6.76503C15.3371 7.10276 15.2027 7.58591 14.9787 7.78054C14.9683 7.79121 14.9494 7.80616 14.939 7.81684C14.1681 8.64259 13.9293 8.03245 13.5095 7.89744C11.4406 7.23901 9.41073 6.48088 7.36019 5.76521L6.42489 5.42223C6.10463 5.30519 5.81187 5.18996 5.62971 5.1454C5.51114 5.1213 5.35917 5.13562 5.32462 5.26486C5.29371 5.33913 5.43109 5.54475 5.34161 5.47386L5.33093 5.4634C5.35704 5.53496 5.45493 5.60154 5.45493 5.60154L5.4529 5.60783L5.45722 5.61624C5.45744 5.63736 5.45882 5.56763 5.46447 5.70278L5.53739 6.80697C5.58109 7.54384 5.6057 8.27462 5.56445 8.97013C5.55467 9.04418 5.62304 9.11523 5.62598 9.19337Z" fill="black" fill-opacity="0.8"/>
</svg>
