<svg width="43" height="43" viewBox="0 0 43 43" fill="none" xmlns="http://www.w3.org/2000/svg">
<g clip-path="url(#clip0_93_3423)">
<g clip-path="url(#clip1_93_3423)">
<path d="M16.64 24.9306C16.5663 24.9992 16.5072 25.082 16.4662 25.174C16.4252 25.266 16.4032 25.3654 16.4014 25.4661C16.3996 25.5668 16.4182 25.6668 16.4559 25.7602C16.4936 25.8536 16.5498 25.9384 16.621 26.0096C16.6922 26.0808 16.777 26.137 16.8704 26.1747C16.9638 26.2124 17.0638 26.231 17.1645 26.2292C17.2652 26.2274 17.3646 26.2054 17.4566 26.1644C17.5486 26.1234 17.6314 26.0643 17.7 25.9906L16.64 24.9306ZM25.655 16.9756H26.405C26.405 16.7767 26.326 16.5859 26.1853 16.4453C26.0447 16.3046 25.8539 16.2256 25.655 16.2256V16.9756ZM19.291 16.2256C19.0921 16.2256 18.9013 16.3046 18.7607 16.4453C18.62 16.5859 18.541 16.7767 18.541 16.9756C18.541 17.1745 18.62 17.3653 18.7607 17.5059C18.9013 17.6466 19.0921 17.7256 19.291 17.7256V16.2256ZM24.905 23.3396C24.905 23.5385 24.984 23.7293 25.1247 23.8699C25.2653 24.0106 25.4561 24.0896 25.655 24.0896C25.8539 24.0896 26.0447 24.0106 26.1853 23.8699C26.326 23.7293 26.405 23.5385 26.405 23.3396H24.905ZM17.7 25.9916L26.186 17.5066L25.126 16.4456L16.64 24.9306L17.7 25.9906V25.9916ZM25.655 16.2256H19.291V17.7256H25.655V16.2256ZM24.905 16.9756V23.3396H26.405V16.9756H24.905Z" fill="#262626"/>
</g>
</g>
<defs>
<clipPath id="clip0_93_3423">
<rect width="18" height="18" fill="white" transform="translate(12.41 12.2178)"/>
</clipPath>
<clipPath id="clip1_93_3423">
<rect width="18" height="18" fill="white" transform="translate(12.41 12.2178)"/>
</clipPath>
</defs>
</svg>
