<svg width="54" height="55" viewBox="0 0 54 55" fill="none" xmlns="http://www.w3.org/2000/svg">
<rect y="0.217773" width="54" height="54" rx="12" fill="#F6F7F9"/>
<g clip-path="url(#clip0_93_3407)">
<g clip-path="url(#clip1_93_3407)">
<path d="M32.718 27.2601L40.5609 20.398V34.0456L32.718 27.2609V27.2601ZM22.6115 28.4229L25.3655 30.8309C25.8147 31.2152 26.3868 31.4257 26.9779 31.4242H27.0162C27.6333 31.4242 28.1968 31.199 28.6337 30.8267L28.6303 30.8292L31.3843 28.4212L39.7568 35.6632H14.2432L22.6115 28.4229ZM14.233 18.7703H39.7721L27.5041 29.5015C27.3665 29.6115 27.1957 29.6714 27.0196 29.6715H26.9856C26.8087 29.6718 26.6371 29.6115 26.4994 29.5007L26.5011 29.5015L14.233 18.7703ZM13.4417 20.3963L21.2829 27.2592L13.4417 34.0397V20.3963ZM40.9817 17.2615C40.6569 17.1001 40.2989 17.0165 39.9362 17.0176H14.069C13.6993 17.0179 13.3349 17.1047 13.0048 17.2709L13.0192 17.2641C12.6225 17.4623 12.2888 17.7672 12.0558 18.1445C11.8228 18.5218 11.6996 18.9567 11.7 19.4001V35.0316C11.6984 35.662 11.947 36.2672 12.3911 36.7145C12.8352 37.1618 13.4386 37.4147 14.069 37.4176H39.9311C40.5614 37.4147 41.1648 37.1618 41.6089 36.7145C42.053 36.2672 42.3016 35.662 42.3 35.0316V19.4001C42.3 18.466 41.7654 17.6576 40.9876 17.2683L40.974 17.2615H40.9817Z" fill="#333333"/>
</g>
</g>
<rect x="0.5" y="0.717773" width="53" height="53" rx="11.5" stroke="#E6E9EE"/>
<defs>
<clipPath id="clip0_93_3407">
<rect width="34" height="34" fill="white" transform="translate(10 10.2178)"/>
</clipPath>
<clipPath id="clip1_93_3407">
<rect width="34" height="34" fill="white" transform="translate(10 10.2178)"/>
</clipPath>
</defs>
</svg>
