<svg width="49" height="49" viewBox="0 0 49 49" fill="none" xmlns="http://www.w3.org/2000/svg">
<rect x="0.5" y="0.0600586" width="48" height="48" rx="12" fill="#2B51FF"/>
<g clip-path="url(#clip0_144_1917)">
<g clip-path="url(#clip1_144_1917)">
<g clip-path="url(#clip2_144_1917)">
<path d="M15.5 15.0601L20.5 21.0601M33.5 15.0601L28.5 21.0601M28 14.0601L25.5 20.0601M21 14.0601L23.5 20.0601" stroke="white" stroke-width="1.5" stroke-linecap="round" stroke-linejoin="round"/>
<path d="M24.5 34.0601C26.3565 34.0601 28.137 33.3226 29.4497 32.0098C30.7625 30.6971 31.5 28.9166 31.5 27.0601C31.5 25.2035 30.7625 23.4231 29.4497 22.1103C28.137 20.7976 26.3565 20.0601 24.5 20.0601C22.6435 20.0601 20.863 20.7976 19.5503 22.1103C18.2375 23.4231 17.5 25.2035 17.5 27.0601C17.5 28.9166 18.2375 30.6971 19.5503 32.0098C20.863 33.3226 22.6435 34.0601 24.5 34.0601Z" stroke="white" stroke-width="1.5"/>
<path d="M24.5 30.5601C25.4283 30.5601 26.3185 30.1913 26.9749 29.5349C27.6313 28.8786 28 27.9883 28 27.0601C28 26.1318 27.6313 25.2416 26.9749 24.5852C26.3185 23.9288 25.4283 23.5601 24.5 23.5601C23.5717 23.5601 22.6815 23.9288 22.0251 24.5852C21.3687 25.2416 21 26.1318 21 27.0601C21 27.9883 21.3687 28.8786 22.0251 29.5349C22.6815 30.1913 23.5717 30.5601 24.5 30.5601Z" stroke="white" stroke-width="1.5"/>
</g>
</g>
</g>
<defs>
<clipPath id="clip0_144_1917">
<rect width="24" height="24" fill="white" transform="translate(12.5 12.0601)"/>
</clipPath>
<clipPath id="clip1_144_1917">
<rect width="24" height="24" fill="white" transform="translate(12.5 12.0601)"/>
</clipPath>
<clipPath id="clip2_144_1917">
<rect width="24" height="24" fill="white" transform="translate(12.5 12.0601)"/>
</clipPath>
</defs>
</svg>
