<svg width="30" height="31" viewBox="0 0 30 31" fill="none" xmlns="http://www.w3.org/2000/svg">
<g clip-path="url(#clip0_394_12)">
<path d="M15 3.56738C12.5895 3.56738 10.2332 4.28217 8.22899 5.62135C6.22477 6.96053 4.66267 8.86395 3.74022 11.0909C2.81778 13.3179 2.57643 15.7684 3.04668 18.1325C3.51694 20.4967 4.67769 22.6683 6.38214 24.3727C8.08659 26.0772 10.2582 27.2379 12.6223 27.7082C14.9865 28.1785 17.437 27.9371 19.664 27.0147C21.8909 26.0922 23.7944 24.5301 25.1335 22.5259C26.4727 20.5217 27.1875 18.1653 27.1875 15.7549C27.1841 12.5236 25.899 9.42565 23.6141 7.14079C21.3292 4.85593 18.2313 3.5708 15 3.56738ZM15 26.0674C12.9604 26.0674 10.9666 25.4626 9.27069 24.3294C7.57481 23.1963 6.25303 21.5857 5.4725 19.7013C4.69197 17.8169 4.48775 15.7434 4.88566 13.743C5.28357 11.7426 6.26574 9.90507 7.70797 8.46284C9.1502 7.02062 10.9877 6.03844 12.9881 5.64053C14.9886 5.24262 17.0621 5.44685 18.9464 6.22738C20.8308 7.0079 22.4414 8.32968 23.5745 10.0256C24.7077 11.7214 25.3125 13.7153 25.3125 15.7549C25.3094 18.489 24.2219 21.1102 22.2886 23.0435C20.3553 24.9768 17.7341 26.0643 15 26.0674ZM20.625 15.7549C20.625 16.0035 20.5262 16.242 20.3504 16.4178C20.1746 16.5936 19.9361 16.6924 19.6875 16.6924H15.9375V20.4424C15.9375 20.691 15.8387 20.9295 15.6629 21.1053C15.4871 21.2811 15.2486 21.3799 15 21.3799C14.7514 21.3799 14.5129 21.2811 14.3371 21.1053C14.1613 20.9295 14.0625 20.691 14.0625 20.4424V16.6924H10.3125C10.0639 16.6924 9.82541 16.5936 9.64959 16.4178C9.47378 16.242 9.37501 16.0035 9.37501 15.7549C9.37501 15.5062 9.47378 15.2678 9.64959 15.092C9.82541 14.9162 10.0639 14.8174 10.3125 14.8174H14.0625V11.0674C14.0625 10.8187 14.1613 10.5803 14.3371 10.4045C14.5129 10.2287 14.7514 10.1299 15 10.1299C15.2486 10.1299 15.4871 10.2287 15.6629 10.4045C15.8387 10.5803 15.9375 10.8187 15.9375 11.0674V14.8174H19.6875C19.9361 14.8174 20.1746 14.9162 20.3504 15.092C20.5262 15.2678 20.625 15.5062 20.625 15.7549Z" fill="black"/>
</g>
<defs>
<clipPath id="clip0_394_12">
<rect width="30" height="30" fill="white" transform="translate(0 0.754883)"/>
</clipPath>
</defs>
</svg>
