<svg width="123" height="34" viewBox="0 0 123 34" fill="none" xmlns="http://www.w3.org/2000/svg">
<path d="M31.3287 22.9445L34.0885 25.6953C35.0518 23.5207 35.5874 21.1157 35.5874 18.5867C35.5874 8.86115 27.6765 0.976318 17.9189 0.976318C8.16121 0.976318 0.250366 8.86115 0.250366 18.5867C0.250366 24.6721 3.34729 30.0367 8.05649 33.1996C8.22121 33.3105 8.38702 33.4181 8.55501 33.5236L12.2355 29.8551L18.1785 23.9317L23.9436 29.6779L27.5991 33.3213C28.2361 32.906 28.8437 32.4493 29.4186 31.9568C30.1047 31.3708 30.7451 30.7325 31.3341 30.0476L31.3701 30.0117L27.8041 26.4574L21.7237 20.397L25.1414 16.9906L21.5961 13.457L18.1785 16.8634L14.6332 20.397L8.26921 26.7401C6.39731 24.5417 5.26828 21.6952 5.26828 18.5867C5.26828 11.6228 10.9331 5.97664 17.92 5.97664C24.9069 5.97664 30.5716 11.6228 30.5716 18.5867C30.5716 19.6903 30.4298 20.7602 30.1626 21.78L31.3309 22.9445H31.3287Z" fill="white"/>
<path d="M61.0916 19.1764L63.3727 22.1214H58.7822L58.2624 21.4575C57.2808 21.9772 56.2369 22.3234 55.1297 22.497C54.0225 22.6706 52.9207 22.675 51.8233 22.5112C50.7259 22.3474 49.6624 22.0154 48.6327 21.5153C47.603 21.0152 46.6836 20.3415 45.8756 19.4942C44.7782 18.3586 43.9887 17.1269 43.5082 15.798C43.0267 14.4702 42.8105 13.1369 42.8585 11.7993C42.9066 10.4617 43.1905 9.1765 43.7102 7.9448C44.23 6.7131 44.9518 5.62008 45.8756 4.66791C46.7993 3.71465 47.8967 2.95467 49.1666 2.38686C50.4366 1.81906 51.832 1.53516 53.3531 1.53516C54.8742 1.53516 56.2303 1.81469 57.4817 2.37267C58.7331 2.93065 59.8108 3.6819 60.7149 4.62423C61.619 5.56766 62.3364 6.6454 62.866 7.85854C63.3956 9.07167 63.6937 10.3318 63.7614 11.641C63.8291 12.9502 63.65 14.254 63.2275 15.5534C62.8038 16.8528 62.0918 18.0605 61.0905 19.1764H61.0916ZM58.6948 16.1157C59.445 14.9801 59.8446 13.7768 59.8927 12.5069C59.9407 11.237 59.7005 10.0675 59.1709 8.99851C58.6413 7.9306 57.8715 7.04942 56.8615 6.35713C55.8504 5.66375 54.6722 5.31761 53.3247 5.31761C52.2077 5.31761 51.226 5.53381 50.3798 5.96731C49.5324 6.40081 48.8303 6.96315 48.2723 7.65653C47.7133 8.34881 47.3049 9.13392 47.045 10.0096C46.7851 10.8854 46.6836 11.7753 46.7415 12.6805C46.7993 13.5857 47.0199 14.456 47.4053 15.2935C47.7897 16.131 48.3586 16.8484 49.1088 17.4446C50.0904 18.2526 51.1878 18.7396 52.3998 18.9023C53.613 19.0661 54.7868 18.9165 55.9224 18.4546C55.6145 18.0703 55.2913 17.6608 54.955 17.2273C54.6176 16.7938 54.2572 16.4335 53.8718 16.1441C53.4863 15.8559 53.0779 15.6779 52.6444 15.6102C52.2109 15.5436 51.7643 15.6735 51.3014 16C51.2435 15.4617 51.2773 14.9943 51.4029 14.6001C51.5274 14.2059 51.7108 13.8838 51.9511 13.6327C52.1913 13.3826 52.4708 13.1904 52.7886 13.055C53.1063 12.9207 53.4088 12.8236 53.6982 12.7668C54.4101 12.651 55.1515 12.8006 55.9213 13.2145C56.6911 13.6283 57.3649 14.2398 57.9425 15.0478L58.6937 16.1157H58.6948Z" fill="white"/>
<path d="M66.405 7.13706H69.6382V9.04248C69.9658 8.36876 70.384 7.83481 70.894 7.44062C71.4039 7.04643 71.9662 6.83023 72.5832 6.79092C73.3912 6.73305 74.0453 6.88264 74.5465 7.23861C75.0466 7.59458 75.3982 8.02808 75.6002 8.53801C75.8022 9.04794 75.8546 9.5677 75.7585 10.0973C75.6624 10.6269 75.4025 11.0451 74.9789 11.353C74.8053 10.8726 74.4733 10.5592 73.983 10.415C73.4928 10.2709 72.9774 10.2906 72.438 10.4729C71.8985 10.6564 71.4126 10.997 70.9802 11.4982C70.5467 11.9983 70.2923 12.6535 70.2148 13.4615C70.1766 13.9234 70.1569 14.3809 70.1569 14.833V22.1522H66.4039V7.13815L66.405 7.13706Z" fill="white"/>
<path d="M84.7386 6.84766C86.2585 6.84766 87.6115 7.21346 88.7951 7.94505C89.9788 8.67664 90.9069 9.61025 91.5817 10.7459C92.2554 11.8815 92.6158 13.1426 92.6649 14.5283C92.713 15.914 92.3613 17.2712 91.6112 18.599C90.9757 19.6964 90.148 20.5722 89.1281 21.2262C88.1072 21.8803 87.0207 22.2898 85.8654 22.4536C84.7102 22.6163 83.5505 22.5202 82.3865 22.1642C81.2215 21.8082 80.1776 21.1683 79.2538 20.2446C78.2143 19.1865 77.5209 17.9635 77.1748 16.5779C76.8286 15.1922 76.857 13.8065 77.261 12.4198C77.4346 11.8618 77.7185 11.3999 78.1127 11.0341C78.5069 10.6683 78.9546 10.3986 79.4558 10.2261C79.9559 10.0525 80.4757 9.97604 81.0151 9.99461C81.5534 10.0143 82.0546 10.1245 82.5165 10.3266C82.9784 10.5286 83.3682 10.8179 83.686 11.1925C84.0037 11.5681 84.1915 12.0256 84.2494 12.5639C83.9611 12.3521 83.6139 12.2418 83.2099 12.232C82.8059 12.2221 82.416 12.3095 82.0404 12.4919C81.6648 12.6753 81.347 12.9537 81.0872 13.3294C80.8273 13.705 80.6973 14.1712 80.6973 14.7292C80.6973 15.6923 80.8993 16.4905 81.3034 17.126C81.7074 17.7615 82.2129 18.2376 82.819 18.5554C83.425 18.8731 84.079 19.0314 84.7822 19.0314C85.4855 19.0314 86.1395 18.8687 86.7455 18.5412C87.3516 18.2136 87.8571 17.7277 88.2611 17.0834C88.6652 16.4392 88.8672 15.6355 88.8672 14.6724C88.8672 13.9212 88.7329 13.2573 88.4632 12.6797C88.1934 12.102 87.832 11.626 87.38 11.2503C86.9279 10.8747 86.4027 10.6148 85.8065 10.4707C85.2092 10.3266 84.5748 10.3222 83.9011 10.4565C83.6128 10.1104 83.2612 9.83628 82.8473 9.63427C82.4335 9.43226 81.9858 9.29795 81.5043 9.23025C81.0227 9.16365 80.5412 9.17238 80.0607 9.25973C79.5792 9.346 79.1271 9.51525 78.7035 9.7653C79.4733 8.84152 80.3676 8.12413 81.3885 7.61419C82.4084 7.10426 83.5254 6.84875 84.7375 6.84875L84.7386 6.84766Z" fill="white"/>
<path d="M98.6258 1.93942V22.15H94.9875V4.88436C94.9875 3.96059 95.3151 3.23445 95.9691 2.70487C96.6232 2.17528 97.5088 1.92086 98.6258 1.93942Z" fill="white"/>
<path d="M103.967 1.04492C104.622 1.04492 105.181 1.28624 105.642 1.76669C106.123 2.22857 106.364 2.79638 106.364 3.4701C106.364 4.14382 106.134 4.72146 105.671 5.20191C105.401 5.47162 105.089 5.65943 104.733 5.76534C104.377 5.87126 104.021 5.97718 103.665 6.0831C103.309 6.18901 102.981 6.31459 102.683 6.45872C102.385 6.60286 102.178 6.83871 102.062 7.16629C101.966 6.85837 101.864 6.46418 101.758 5.98264C101.653 5.50219 101.585 5.00099 101.556 4.48123C101.528 3.96147 101.556 3.45591 101.643 2.96563C101.729 2.47535 101.936 2.06588 102.263 1.7383C102.725 1.27641 103.293 1.04492 103.966 1.04492H103.967ZM102.09 10.2259C102.129 9.64825 102.249 9.1678 102.452 8.78235C102.654 8.39799 102.918 8.08898 103.246 7.85858C103.573 7.62709 103.953 7.45893 104.386 7.35301C104.819 7.2471 105.295 7.19469 105.815 7.19469V22.1509H102.09V10.227V10.2259Z" fill="white"/>
<path d="M120.886 12.7373C120.732 12.1989 120.438 11.7458 120.006 11.38C119.572 11.0142 119.068 10.7401 118.49 10.5567C117.913 10.3743 117.297 10.287 116.643 10.2968C115.987 10.3066 115.367 10.4366 114.781 10.6866C114.193 10.9367 113.679 11.3068 113.236 11.7982C112.792 12.2885 112.485 12.9098 112.312 13.6599C112.177 14.2758 112.158 14.9015 112.254 15.537C112.35 16.1725 112.572 16.7446 112.918 17.2546C113.264 17.7645 113.73 18.1838 114.318 18.5103C114.904 18.8379 115.612 19.0006 116.44 19.0006C117.999 19.0006 119.211 18.4328 120.078 17.2972L122.821 19.2888C121.358 21.3482 119.25 22.3779 116.497 22.3779C115.054 22.3779 113.807 22.1039 112.759 21.5546C111.709 21.0065 110.858 20.2945 110.204 19.4177C109.548 18.542 109.106 17.5603 108.876 16.4728C108.644 15.3852 108.62 14.3075 108.804 13.2395C108.986 12.1716 109.386 11.1605 110.002 10.2072C110.617 9.25508 111.455 8.47981 112.513 7.88362C113.302 7.44138 114.144 7.13782 115.04 6.97403C115.935 6.81024 116.835 6.79605 117.739 6.93036C118.932 7.10397 119.861 7.45994 120.526 7.99827C121.189 8.53768 121.627 9.11968 121.839 9.74536C122.051 10.371 122.065 10.9683 121.883 11.535C121.699 12.1028 121.367 12.5025 120.887 12.7329L120.886 12.7373Z" fill="white"/>
<path d="M44.8897 33.407V28.6353H43.0138V27.7454H47.8183V28.6353H45.9424V33.407H44.8908H44.8897Z" fill="white"/>
<path d="M50.8747 32.5246H54.0697V33.4058H49.8242V27.7441H53.9572V28.6253H50.8758V32.5235L50.8747 32.5246ZM50.7939 30.0983H53.6089V30.9632H50.7939V30.0983Z" fill="white"/>
<path d="M59.075 33.4877C58.6437 33.4877 58.243 33.4167 57.8739 33.2737C57.5048 33.1306 57.1838 32.9286 56.9119 32.6666C56.64 32.4056 56.4282 32.0966 56.2775 31.7406C56.1268 31.3846 56.0515 30.997 56.0515 30.5755C56.0515 30.154 56.1268 29.7664 56.2775 29.4104C56.4282 29.0545 56.6411 28.7465 56.9163 28.4845C57.1914 28.2235 57.5125 28.0204 57.8783 27.8773C58.2451 27.7343 58.647 27.6633 59.0838 27.6633C59.5478 27.6633 59.9704 27.743 60.3537 27.9025C60.7358 28.0619 61.0601 28.2977 61.3244 28.61L60.6452 29.2488C60.4399 29.0282 60.2106 28.8623 59.9573 28.7509C59.704 28.6406 59.4288 28.5849 59.1329 28.5849C58.837 28.5849 58.5651 28.633 58.3205 28.7301C58.0748 28.8273 57.8619 28.9649 57.6817 29.1429C57.5015 29.3209 57.3607 29.5305 57.2613 29.774C57.1609 30.0164 57.1117 30.284 57.1117 30.5744C57.1117 30.8649 57.1619 31.1324 57.2613 31.3748C57.3607 31.6172 57.5015 31.828 57.6817 32.0059C57.8619 32.1839 58.0748 32.3215 58.3205 32.4187C58.5662 32.5159 58.837 32.5639 59.1329 32.5639C59.4288 32.5639 59.704 32.5082 59.9573 32.3979C60.2106 32.2877 60.4399 32.1184 60.6452 31.8924L61.3244 32.5399C61.0601 32.8467 60.7369 33.0815 60.3537 33.2431C59.9704 33.4047 59.5445 33.4855 59.0761 33.4855L59.075 33.4877Z" fill="white"/>
<path d="M64.5991 33.407H63.5476V27.7454H64.5991V33.407ZM67.6074 30.9808H64.5096V30.0832H67.6074V30.9808ZM67.5266 27.7454H68.5781V33.407H67.5266V27.7454Z" fill="white"/>
<path d="M71.3112 33.407V27.7454H72.176L75.727 32.1044H75.2979V27.7454H76.3407V33.407H75.4748L71.9249 29.048H72.354V33.407H71.3112Z" fill="white"/>
<path d="M81.7283 33.4882C81.286 33.4882 80.8787 33.415 80.5075 33.2698C80.1351 33.1246 79.8119 32.9204 79.5367 32.6594C79.2616 32.3985 79.0486 32.0905 78.898 31.7378C78.7473 31.3851 78.6719 30.9975 78.6719 30.5771C78.6719 30.1567 78.7473 29.7702 78.898 29.4164C79.0486 29.0637 79.2616 28.7558 79.5367 28.4948C79.8119 28.2338 80.1351 28.0296 80.5075 27.8844C80.8798 27.7392 81.2838 27.666 81.7206 27.666C82.1574 27.666 82.5679 27.7392 82.9381 27.8844C83.3072 28.0296 83.6293 28.2338 83.9045 28.4948C84.1796 28.7569 84.3926 29.0637 84.5433 29.4164C84.6939 29.7702 84.7693 30.1567 84.7693 30.5771C84.7693 30.9975 84.6939 31.3862 84.5433 31.7422C84.3926 32.0982 84.1796 32.405 83.9045 32.6638C83.6293 32.9226 83.3072 33.1246 82.9381 33.2709C82.569 33.4161 82.1661 33.4893 81.7293 33.4893L81.7283 33.4882ZM81.7206 32.5666C82.0067 32.5666 82.2709 32.5186 82.5134 32.4214C82.7558 32.3242 82.9665 32.1855 83.1445 32.0054C83.3225 31.8252 83.4611 31.6144 83.5605 31.3742C83.6599 31.134 83.7101 30.8687 83.7101 30.5782C83.7101 30.2878 83.6599 30.0213 83.5605 29.7811C83.4611 29.5409 83.3225 29.3312 83.1445 29.15C82.9665 28.9698 82.7569 28.83 82.5134 28.7339C82.2709 28.6367 82.0067 28.5887 81.7206 28.5887C81.4345 28.5887 81.1714 28.6367 80.9322 28.7339C80.692 28.8311 80.4824 28.9698 80.3011 29.15C80.1198 29.3301 79.9801 29.5409 79.8807 29.7811C79.7802 30.0213 79.7311 30.2867 79.7311 30.5782C79.7311 30.8698 79.7813 31.1285 79.8807 31.3709C79.9801 31.6134 80.1187 31.8252 80.2967 32.0054C80.4747 32.1866 80.6844 32.3253 80.9279 32.4214C81.1703 32.5186 81.4345 32.5666 81.7206 32.5666Z" fill="white"/>
<path d="M87.0974 33.407V27.7454H88.1489V32.5171H91.1091V33.407H87.0974Z" fill="white"/>
<path d="M95.7028 33.4882C95.2605 33.4882 94.8532 33.415 94.482 33.2698C94.1096 33.1246 93.7864 32.9204 93.5112 32.6594C93.2361 32.3985 93.0231 32.0905 92.8725 31.7378C92.7218 31.3851 92.6464 30.9975 92.6464 30.5771C92.6464 30.1567 92.7218 29.7702 92.8725 29.4164C93.0231 29.0637 93.2361 28.7558 93.5112 28.4948C93.7864 28.2338 94.1096 28.0296 94.482 27.8844C94.8543 27.7392 95.2583 27.666 95.6951 27.666C96.1319 27.666 96.5424 27.7392 96.9126 27.8844C97.2817 28.0296 97.6038 28.2338 97.879 28.4948C98.1541 28.7569 98.3671 29.0637 98.5177 29.4164C98.6684 29.7702 98.7438 30.1567 98.7438 30.5771C98.7438 30.9975 98.6684 31.3862 98.5177 31.7422C98.3671 32.0982 98.1541 32.405 97.879 32.6638C97.6038 32.9226 97.2817 33.1246 96.9126 33.2709C96.5435 33.4161 96.1406 33.4893 95.7038 33.4893L95.7028 33.4882ZM95.6951 32.5666C95.9812 32.5666 96.2454 32.5186 96.4878 32.4214C96.7303 32.3242 96.941 32.1855 97.119 32.0054C97.297 31.8252 97.4356 31.6144 97.535 31.3742C97.6344 31.134 97.6846 30.8687 97.6846 30.5782C97.6846 30.2878 97.6344 30.0213 97.535 29.7811C97.4356 29.5409 97.297 29.3312 97.119 29.15C96.941 28.9698 96.7313 28.83 96.4878 28.7339C96.2454 28.6367 95.9812 28.5887 95.6951 28.5887C95.409 28.5887 95.1459 28.6367 94.9067 28.7339C94.6665 28.8311 94.4569 28.9698 94.2756 29.15C94.0943 29.3301 93.9546 29.5409 93.8552 29.7811C93.7547 30.0213 93.7056 30.2867 93.7056 30.5782C93.7056 30.8698 93.7558 31.1285 93.8552 31.3709C93.9546 31.6134 94.0932 31.8252 94.2712 32.0054C94.4492 32.1866 94.6589 32.3253 94.9024 32.4214C95.1448 32.5186 95.409 32.5666 95.6951 32.5666Z" fill="white"/>
<path d="M103.718 33.4877C103.275 33.4877 102.869 33.4167 102.5 33.2737C102.131 33.1306 101.809 32.9286 101.534 32.6666C101.259 32.4056 101.046 32.0966 100.895 31.7406C100.744 31.3846 100.669 30.997 100.669 30.5755C100.669 30.154 100.744 29.7664 100.895 29.4104C101.046 29.0545 101.26 28.7465 101.538 28.4845C101.815 28.2235 102.141 28.0204 102.512 27.8773C102.884 27.7343 103.291 27.6633 103.733 27.6633C104.212 27.6633 104.646 27.7419 105.031 27.8981C105.417 28.0542 105.742 28.2835 106.005 28.586L105.342 29.2324C105.122 29.0119 104.883 28.8481 104.627 28.7432C104.371 28.6384 104.09 28.586 103.782 28.586C103.474 28.586 103.211 28.6341 102.958 28.7312C102.704 28.8284 102.486 28.966 102.302 29.144C102.119 29.322 101.978 29.5316 101.878 29.7751C101.777 30.0175 101.728 30.2851 101.728 30.5755C101.728 30.866 101.778 31.1258 101.878 31.3683C101.977 31.6107 102.119 31.8225 102.302 32.0027C102.486 32.1839 102.701 32.3226 102.95 32.4187C103.198 32.5159 103.473 32.5639 103.774 32.5639C104.055 32.5639 104.326 32.5191 104.587 32.4307C104.848 32.3423 105.098 32.1927 105.335 31.9819L105.933 32.7659C105.636 33.0029 105.293 33.182 104.902 33.3042C104.511 33.4255 104.116 33.4866 103.718 33.4866V33.4877ZM104.938 32.6305V30.5111H105.933V32.767L104.938 32.6294V32.6305Z" fill="white"/>
<path d="M108.53 33.407V27.7454H109.581V33.407H108.53Z" fill="white"/>
<path d="M113.373 32.5246H116.568V33.4058H112.323V27.7441H116.456V28.6253H113.375V32.5235L113.373 32.5246ZM113.293 30.0983H116.108V30.9632H113.293V30.0983Z" fill="white"/>
<path d="M120.709 33.4882C120.267 33.4882 119.844 33.4249 119.439 33.2982C119.035 33.1715 118.714 33.0088 118.477 32.809L118.841 31.9923C119.067 32.1702 119.348 32.3187 119.682 32.4367C120.016 32.5557 120.359 32.6147 120.709 32.6147C121.005 32.6147 121.245 32.5819 121.429 32.5175C121.612 32.453 121.746 32.3657 121.833 32.2543C121.919 32.144 121.963 32.0185 121.963 31.8787C121.963 31.7062 121.9 31.5675 121.777 31.4627C121.654 31.3578 121.493 31.2738 121.296 31.2115C121.099 31.1493 120.881 31.0914 120.64 31.0379C120.4 30.9844 120.16 30.9211 119.921 30.8479C119.681 30.7747 119.462 30.6808 119.266 30.5651C119.069 30.4493 118.909 30.2943 118.784 30.0999C118.66 29.9056 118.598 29.6577 118.598 29.3563C118.598 29.055 118.68 28.7678 118.845 28.5112C119.01 28.2557 119.26 28.0504 119.598 27.8964C119.934 27.7424 120.362 27.666 120.879 27.666C121.219 27.666 121.556 27.7097 121.891 27.796C122.225 27.8822 122.516 28.0067 122.764 28.1683L122.432 28.9851C122.179 28.8344 121.917 28.7219 121.648 28.6498C121.379 28.5767 121.12 28.5407 120.872 28.5407C120.58 28.5407 120.344 28.5756 120.164 28.6455C119.983 28.7154 119.852 28.8071 119.768 28.9206C119.684 29.0342 119.642 29.1631 119.642 29.3094C119.642 29.4819 119.703 29.6206 119.825 29.7254C119.946 29.8302 120.105 29.9132 120.302 29.9722C120.498 30.0311 120.718 30.089 120.961 30.1458C121.204 30.2026 121.445 30.2659 121.685 30.3358C121.926 30.4057 122.144 30.4974 122.34 30.611C122.537 30.7245 122.696 30.8774 122.818 31.0718C122.939 31.2661 123 31.5118 123 31.8077C123 32.1036 122.918 32.3886 122.753 32.6452C122.588 32.9018 122.337 33.106 121.997 33.26C121.657 33.414 121.228 33.4904 120.71 33.4904L120.709 33.4882Z" fill="white"/>
</svg>
